<svg version="1.1" id="Capa_1" xmlns="http://www.w3.org/2000/svg" xmlns:xlink="http://www.w3.org/1999/xlink" x="0" y="0" viewBox="0 0 200 200" xml:space="preserve"><style></style><defs><path id="SVGID_1_" d="M-16.7-652.8h300v249h-300z"/></defs><clipPath id="SVGID_2_"><use xlink:href="#SVGID_1_" overflow="visible"/></clipPath><g clip-path="url(#SVGID_2_)"><image width="1600" height="1200" xlink:href="DCAC7D79.jpg" transform="translate(-1038.556 -1010.487) scale(.8955)" overflow="visible"/></g><defs><path id="SVGID_200_" d="M398.4 440.1h300v249h-300z"/></defs><clipPath id="SVGID_3_"><use xlink:href="#SVGID_200_" overflow="visible"/></clipPath><g clip-path="url(#SVGID_3_)"><image width="1600" height="1200" xlink:href="DCAC7D7B.jpg" transform="translate(-623.461 82.433) scale(.8955)" overflow="visible"/></g><g><defs><path id="SVGID_214_" d="M398.4-543.9h300v249h-300z"/></defs><clipPath id="SVGID_4_"><use xlink:href="#SVGID_214_" overflow="visible"/></clipPath><g clip-path="url(#SVGID_4_)"><image width="1600" height="1200" xlink:href="DCAC7D7E.jpg" transform="translate(-623.461 -901.567) scale(.8955)" overflow="visible"/></g></g><path d="M160.9 184.8h-5.4v-29.4c-12.8 17.6-33.3 28.2-55.5 28.2S57.3 173 44.5 155.4v29.4h-5.4v-38.1c-5.1-9.7-7.8-20.7-7.8-31.8 0-34 24.9-62.8 58.2-67.9v-7.4l-21.8-3.1V45c0 8.3-18.8 10.5-29.9 10.5S8 53.3 8 45.1V25.7c0-8.3 18.8-10.5 29.9-10.5s29.9 2.2 29.9 10.5v5.4l24.8 3.5c1.3.2 2.3 1.3 2.3 2.7v9.1c3.4-.2 6.7-.2 10.1 0v-9.1c0-1.3 1-2.5 2.3-2.7l24.8-3.5v-5.4c0-8.3 18.8-10.5 29.9-10.5s30 2.2 30 10.5v19.4c0 8.3-18.8 10.5-29.9 10.5s-29.9-2.2-29.9-10.5v-8.5l-21.8 3.1V47c33.4 5.1 58.2 33.9 58.2 67.9 0 11.1-2.7 22-7.8 31.8v38.1zM44.2 144.7c11 20.7 32.4 33.5 55.8 33.5s44.8-12.8 55.8-33.5c4.9-9.1 7.4-19.4 7.4-29.8 0-32.1-24-59.1-55.8-62.9-4.9-.6-10-.6-14.9 0-31.8 3.7-55.8 30.8-55.8 62.9 0 10.4 2.6 20.7 7.5 29.8zm114 1.3zm-116.4 0zm93.1-112.6h2.7V45c.7 1.7 9.7 5.1 24.5 5.1s23.8-3.4 24.5-5.2V32.1c-6.4 3.1-17.1 4-24.5 4-7.3 0-18.1-1-24.5-4v1.3h-2.7zM13.4 32.1v13c.7 1.7 9.7 5.1 24.5 5.1 14.7 0 23.8-3.4 24.5-5.2V32.2c-6.4 3.1-17.1 4-24.5 4s-18.1-1-24.5-4.1zm124.3-6.4c.8 1.7 9.8 5 24.4 5 14.4 0 23.4-3.2 24.4-5.1-1-1.8-10-5.1-24.4-5.1-14.5.1-23.5 3.4-24.4 5.2zm-124.3 0c.8 1.7 9.8 5 24.4 5 14.4 0 23.4-3.2 24.4-5.1-1-1.8-10-5.1-24.4-5.1-14.4.1-23.4 3.4-24.4 5.2zM100 168.1c-29.3 0-53.2-23.9-53.2-53.2S70.7 61.8 100 61.8c29.3 0 53.2 23.9 53.2 53.2s-23.9 53.1-53.2 53.1zm0-100.9c-26.3 0-47.8 21.4-47.8 47.8s21.4 47.8 47.8 47.8c26.3 0 47.8-21.4 47.8-47.8S126.3 67.2 100 67.2zm0 85.4c-5.8 0-10.5-4.7-10.5-10.5s4.7-10.5 10.5-10.5 10.5 4.7 10.5 10.5-4.7 10.5-10.5 10.5zm0-15.5c-2.8 0-5.1 2.3-5.1 5.1s2.3 5.1 5.1 5.1 5.1-2.3 5.1-5.1c0-2.9-2.3-5.1-5.1-5.1z" fill="#fff"/></svg>