<?xml version="1.0" encoding="utf-8"?>
<!-- Generator: Adobe Illustrator 25.4.1, SVG Export Plug-In . SVG Version: 6.00 Build 0)  -->
<svg version="1.1" id="Layer_1" xmlns="http://www.w3.org/2000/svg" xmlns:xlink="http://www.w3.org/1999/xlink" x="0px" y="0px"
	 viewBox="0 0 55.89 55.28" style="enable-background:new 0 0 55.89 55.28;" xml:space="preserve">
<style type="text/css">
	.st0{fill:#C0CB40;}
	.st1{fill:#544842;}
	.st2{font-family:'BebasNeueBold';}
	.st3{font-size:9px;}
</style>
<g>
	<g>
		
			<ellipse transform="matrix(1 -1.576117e-03 1.576117e-03 1 -0.044 0.0427)" class="st0" cx="27.05" cy="27.95" rx="23.98" ry="23.98"/>
		<g>
			<path class="st1" d="M29.52,13.69v-0.1c0,0,0.86-0.24,2.11-0.57l0.07,0.69c0.02,0.19,0.19,0.33,0.38,0.31
				c0.19-0.02,0.33-0.18,0.31-0.38l-0.08-0.8c0.64-0.17,1.35-0.35,2.08-0.53l0.12,1.22c0.02,0.19,0.19,0.33,0.38,0.31
				c0.19-0.02,0.33-0.19,0.31-0.38l-0.13-1.32c0.83-0.2,1.66-0.39,2.44-0.56l0.16,1.64c0.02,0.19,0.19,0.33,0.38,0.31
				c0.19-0.02,0.33-0.19,0.31-0.38l-0.17-1.71c1.61-0.32,2.87-0.49,3.1-0.3c0.73,0.62,0.52,1.46,1.49,2.6
				c0.97,1.15,0.97,3.37,0,4.51c-0.97,1.15-0.76,1.98-1.49,2.6c-0.23,0.2-1.49,0.03-3.1-0.3l0.17-1.71
				c0.02-0.19-0.12-0.36-0.31-0.38c-0.19-0.02-0.36,0.12-0.38,0.31l-0.16,1.64c-0.78-0.17-1.61-0.36-2.44-0.56l0.13-1.32
				c0.02-0.19-0.12-0.36-0.31-0.38c-0.19-0.02-0.36,0.12-0.38,0.31l-0.12,1.22c-0.73-0.18-1.44-0.36-2.08-0.53l0.08-0.8
				c0.02-0.19-0.12-0.36-0.31-0.38c-0.19-0.02-0.36,0.12-0.38,0.31l-0.07,0.69c-1.25-0.33-2.11-0.57-2.11-0.57v-0.11L4.97,18.59
				c0.06-0.13,0.12-0.26,0.18-0.39l24.38-0.34v-0.43L5.34,17.77c0.09-0.18,0.17-0.36,0.26-0.54l23.92-0.13v-0.43L5.82,16.8
				c0.1-0.19,0.2-0.38,0.31-0.57h23.39v-0.21V15.8H6.38c0.11-0.19,0.23-0.38,0.34-0.56l22.8,0.12v-0.43L6.99,14.81
				c0.12-0.18,0.23-0.35,0.35-0.52l22.18,0.31v-0.43l-21.88-0.3c0.1-0.13,0.19-0.26,0.29-0.39L29.52,13.69z"/>
			<path class="st1" d="M36.94,21.83c0.03-0.31,0.23-0.55,0.5-0.65c0.11-0.04,0.23-0.06,0.35-0.05c0.12,0.01,0.24,0.06,0.34,0.12
				c0.24,0.15,0.39,0.43,0.36,0.74c-0.04,0.43-0.43,0.74-0.86,0.7C37.21,22.64,36.89,22.26,36.94,21.83z"/>
			<path class="st1" d="M35.33,21.67c-0.04,0.43-0.43,0.74-0.86,0.7c-0.43-0.04-0.74-0.42-0.7-0.85c0.03-0.31,0.23-0.55,0.5-0.65
				c0.11-0.04,0.23-0.06,0.35-0.05c0.12,0.01,0.24,0.06,0.34,0.12C35.21,21.09,35.36,21.37,35.33,21.67z"/>
			<path class="st1" d="M32.52,21.5c-0.04,0.43-0.43,0.74-0.86,0.7c-0.43-0.04-0.74-0.43-0.7-0.86c0.03-0.31,0.23-0.55,0.5-0.65
				c0.11-0.04,0.23-0.06,0.35-0.05c0.12,0.01,0.24,0.06,0.34,0.12C32.39,20.92,32.55,21.2,32.52,21.5z"/>
			<path class="st1" d="M38.13,10.78c-0.1,0.06-0.21,0.11-0.34,0.12c-0.12,0.01-0.24-0.01-0.35-0.05c-0.27-0.1-0.47-0.35-0.5-0.65
				c-0.04-0.43,0.27-0.81,0.7-0.85c0.43-0.04,0.81,0.27,0.86,0.7C38.52,10.35,38.37,10.63,38.13,10.78z"/>
			<path class="st1" d="M34.63,11.21c-0.12,0.01-0.24-0.01-0.35-0.05c-0.27-0.1-0.47-0.35-0.5-0.65c-0.04-0.43,0.27-0.81,0.7-0.86
				s0.81,0.27,0.86,0.7c0.03,0.31-0.12,0.58-0.36,0.74C34.87,11.15,34.75,11.19,34.63,11.21z"/>
			<path class="st1" d="M31.66,9.82c0.43-0.04,0.81,0.27,0.86,0.7c0.03,0.31-0.12,0.58-0.37,0.74c-0.1,0.06-0.21,0.11-0.34,0.12
				c-0.12,0.01-0.24-0.01-0.35-0.05c-0.27-0.1-0.47-0.35-0.5-0.65C30.92,10.25,31.23,9.87,31.66,9.82z"/>
			<path class="st1" d="M48.97,37.69l-24.38,0.34v0.43l24.18-0.33c-0.09,0.18-0.17,0.36-0.27,0.54L24.59,38.8v0.43l23.7-0.13
				c-0.1,0.19-0.2,0.38-0.31,0.57H24.59v0.21v0.21h23.14c-0.11,0.19-0.23,0.38-0.34,0.56l-22.8-0.12v0.43l22.53,0.12
				c-0.12,0.18-0.23,0.35-0.35,0.52L24.59,41.3v0.43l21.88,0.3c-0.1,0.13-0.19,0.26-0.29,0.39l-21.58-0.22v0.1
				c0,0-0.86,0.24-2.11,0.57l-0.07-0.69c-0.02-0.19-0.19-0.33-0.38-0.31c-0.19,0.02-0.33,0.18-0.31,0.38l0.08,0.8
				c-0.64,0.17-1.35,0.35-2.08,0.53l-0.12-1.22c-0.02-0.19-0.19-0.33-0.38-0.31c-0.19,0.02-0.33,0.19-0.31,0.38l0.13,1.32
				c-0.83,0.2-1.66,0.39-2.44,0.56l-0.16-1.64c-0.02-0.19-0.19-0.33-0.38-0.31c-0.19,0.02-0.33,0.19-0.31,0.38l0.17,1.71
				c-1.61,0.32-2.87,0.49-3.1,0.3c-0.73-0.62-0.52-1.46-1.49-2.6c-0.97-1.15-0.97-3.37,0-4.51c0.97-1.15,0.76-1.98,1.49-2.6
				c0.23-0.2,1.49-0.03,3.1,0.3l-0.17,1.71c-0.02,0.19,0.12,0.36,0.31,0.38c0.19,0.02,0.36-0.12,0.38-0.31l0.16-1.64
				c0.78,0.17,1.61,0.36,2.44,0.56l-0.13,1.32c-0.02,0.19,0.12,0.36,0.31,0.38c0.19,0.02,0.36-0.12,0.38-0.31l0.12-1.22
				c0.73,0.18,1.44,0.36,2.08,0.53l-0.08,0.8c-0.02,0.19,0.12,0.36,0.31,0.38c0.19,0.02,0.36-0.12,0.38-0.31l0.07-0.69
				c1.25,0.33,2.11,0.57,2.11,0.57v0.11l24.56-0.25C49.09,37.44,49.02,37.56,48.97,37.69z"/>
			<path class="st1" d="M17.17,34.06c-0.03,0.31-0.23,0.55-0.5,0.65c-0.11,0.04-0.23,0.06-0.35,0.05c-0.12-0.01-0.24-0.06-0.34-0.12
				c-0.24-0.15-0.39-0.43-0.36-0.74c0.04-0.43,0.43-0.74,0.85-0.7C16.9,33.25,17.21,33.64,17.17,34.06z"/>
			<path class="st1" d="M18.78,34.22c0.04-0.43,0.43-0.74,0.86-0.7c0.43,0.04,0.74,0.42,0.7,0.85c-0.03,0.31-0.23,0.55-0.5,0.65
				c-0.11,0.04-0.23,0.06-0.35,0.05c-0.12-0.01-0.24-0.06-0.34-0.12C18.9,34.8,18.75,34.52,18.78,34.22z"/>
			<path class="st1" d="M21.59,34.39c0.04-0.43,0.43-0.74,0.86-0.7c0.43,0.04,0.74,0.43,0.7,0.86c-0.03,0.31-0.23,0.55-0.5,0.65
				c-0.11,0.04-0.23,0.06-0.35,0.05c-0.12-0.01-0.24-0.06-0.34-0.12C21.71,34.98,21.56,34.7,21.59,34.39z"/>
			<path class="st1" d="M15.62,45.85c-0.03-0.31,0.12-0.58,0.36-0.74c0.1-0.06,0.21-0.11,0.34-0.12c0.12-0.01,0.24,0.01,0.35,0.05
				c0.27,0.1,0.47,0.35,0.5,0.65c0.04,0.43-0.27,0.81-0.7,0.85C16.04,46.59,15.66,46.28,15.62,45.85z"/>
			<path class="st1" d="M19.48,44.69c0.12-0.01,0.24,0.01,0.35,0.05c0.27,0.1,0.47,0.35,0.5,0.65c0.04,0.43-0.27,0.81-0.7,0.86
				c-0.43,0.04-0.81-0.27-0.86-0.7c-0.03-0.31,0.12-0.58,0.36-0.74C19.24,44.74,19.36,44.7,19.48,44.69z"/>
			<path class="st1" d="M22.45,46.07c-0.43,0.04-0.81-0.27-0.86-0.7c-0.03-0.31,0.12-0.58,0.36-0.74c0.1-0.06,0.21-0.11,0.34-0.12
				c0.12-0.01,0.24,0.01,0.35,0.05c0.27,0.1,0.47,0.35,0.5,0.65C23.19,45.64,22.88,46.03,22.45,46.07z"/>
		</g>
		<g>
			<path class="st1" d="M27.05,2.89c13.81,0,25.05,11.24,25.05,25.05C52.11,41.76,40.87,53,27.05,53S2,41.76,2,27.95
				C2,14.13,13.24,2.89,27.05,2.89z M27.05,5.03c-12.63,0-22.91,10.28-22.91,22.91s10.28,22.91,22.91,22.91
				c12.63,0,22.91-10.28,22.91-22.91S39.69,5.03,27.05,5.03z"/>
		</g>
	</g>
	<g>
		<text transform="matrix(1 0 0 1 7.1211 26.6948)" class="st1 st2 st3">TOQUEN</text>
		<text transform="matrix(1 0 0 1 27.4458 35.77)" class="st1 st2 st3">EL DOM</text>
	</g>
</g>
</svg>
