<svg version="1.1" id="Capa_1" xmlns="http://www.w3.org/2000/svg" xmlns:xlink="http://www.w3.org/1999/xlink" x="0" y="0" viewBox="0 0 200 200" xml:space="preserve"><style>.st1{fill:#fff}</style><defs><path id="SVGID_1_" d="M-16.7-652.8h300v249h-300z"/></defs><clipPath id="SVGID_2_"><use xlink:href="#SVGID_1_" overflow="visible"/></clipPath><g clip-path="url(#SVGID_2_)"><image width="1600" height="1200" xlink:href="D16D5AFC.jpg" transform="translate(-1038.556 -1010.487) scale(.8955)" overflow="visible"/></g><defs><path id="SVGID_200_" d="M398.4 440.1h300v249h-300z"/></defs><clipPath id="SVGID_3_"><use xlink:href="#SVGID_200_" overflow="visible"/></clipPath><g clip-path="url(#SVGID_3_)"><image width="1600" height="1200" xlink:href="D16D5AFD.jpg" transform="translate(-623.461 82.433) scale(.8955)" overflow="visible"/></g><g><defs><path id="SVGID_214_" d="M398.4-543.9h300v249h-300z"/></defs><clipPath id="SVGID_4_"><use xlink:href="#SVGID_214_" overflow="visible"/></clipPath><g clip-path="url(#SVGID_4_)"><image width="1600" height="1200" xlink:href="D16D5AFB.jpg" transform="translate(-623.461 -901.567) scale(.8955)" overflow="visible"/></g></g><g><path class="st1" d="M100.3 17c1.2 8.3 1.3 18.9 10 29.3 6.6 8 14.1 15.1 19.3 21.6 6.8 8.5 11.6 19.1 11.6 29.9 0 17.3-8.3 34.5-13.9 44h-2.7c4-9 12-23.9 11.3-39.7-.3-8.8-3.7-18.3-9.3-25.2-6.3-8.1-16.9-14.8-26.2-15.4v94.3c0 7.5-4.5 14.3-11 19.3-6.3 5-14.6 8-21.9 8-4.7 0-9-1.5-12-4-3.2-2.5-5-6.1-5-10.5 0-6.8 4.7-13.6 11-18.6 6.3-5.1 14.3-8.5 20.9-8.5 5.8 0 10.9.6 13.9 3.5V17h4z"/><path class="st1" d="M17.7 36.6h164.6v5.1H17.7zM17.7 67.4h164.6v5.1H17.7zM17.7 98.3h164.6v5.1H17.7zM17.7 129.2h164.6v5.1H17.7zM17.7 160h164.6v5.1H17.7z"/></g></svg>