<?xml version="1.0" encoding="utf-8"?>
<!-- Generator: Adobe Illustrator 25.4.1, SVG Export Plug-In . SVG Version: 6.00 Build 0)  -->
<svg version="1.1" id="Layer_1" xmlns="http://www.w3.org/2000/svg" xmlns:xlink="http://www.w3.org/1999/xlink" x="0px" y="0px"
	 viewBox="0 0 261.89 150.28" style="enable-background:new 0 0 261.89 150.28;" xml:space="preserve">
<style type="text/css">
	.st0{fill:#FFFFFF;}
	.st1{fill:none;}
	.st2{opacity:0.4;fill:#FFFFFF;}
	.st3{opacity:0.4;}
</style>
<g>
	<g>
		<path class="st0" d="M256.93,31.62c0,2.05-1.76,3.7-3.93,3.7H11.08c-2.17,0-3.93-1.66-3.93-3.7v-1.85c0-2.04,1.76-3.7,3.93-3.7
			H253c2.17,0,3.93,1.66,3.93,3.7V31.62z"/>
		<path class="st0" d="M256.9,63.13c0.5,1.99-0.86,4-3.04,4.49l-242.88,54.6c-2.18,0.49-4.35-0.72-4.85-2.71l-0.45-1.8
			c-0.5-1.99,0.86-4,3.04-4.49l242.88-54.6c2.18-0.49,4.35,0.72,4.85,2.71L256.9,63.13z"/>
	</g>
	<g>
		<path class="st1" d="M42.9,140.3c0,2.04-1.66,3.7-3.7,3.7h-17.9c-2.04,0-3.7-1.66-3.7-3.7V14.41c0-2.04,1.66-3.7,3.7-3.7h17.9
			c2.04,0,3.7,1.66,3.7,3.7V140.3z"/>
		<path class="st2" d="M39.23,10.71h-2.07c0.14,0.39,0.22,0.8,0.22,1.23v125.89c0,2.04-1.66,3.7-3.7,3.7H17.84
			c0.51,1.44,1.88,2.47,3.49,2.47h17.9c2.04,0,3.7-1.66,3.7-3.7V14.41C42.93,12.36,41.27,10.71,39.23,10.71z"/>
		<path class="st2" d="M24.39,135.88c0,2.1-0.5,3.8-1.11,3.8h-0.56c-0.61,0-1.11-1.7-1.11-3.8V16.36c0-2.1,0.5-3.8,1.11-3.8h0.56
			c0.61,0,1.11,1.7,1.11,3.8V135.88z"/>
	</g>
	<g>
		<path class="st1" d="M75.92,133.09c0,1.94-1.66,3.51-3.7,3.51h-17.9c-2.05,0-3.7-1.57-3.7-3.51V13.9c0-1.94,1.66-3.51,3.7-3.51
			h17.9c2.04,0,3.7,1.57,3.7,3.51V133.09z"/>
		<path class="st2" d="M72.24,10.4h-2.07c0.14,0.37,0.22,0.76,0.22,1.17v119.19c0,1.94-1.66,3.51-3.7,3.51H50.86
			c0.51,1.36,1.88,2.34,3.49,2.34h17.9c2.04,0,3.7-1.57,3.7-3.51V13.9C75.95,11.97,74.29,10.4,72.24,10.4z"/>
		<path class="st2" d="M57.41,128.9c0,1.99-0.5,3.6-1.11,3.6h-0.56c-0.61,0-1.11-1.61-1.11-3.6V15.75c0-1.99,0.5-3.6,1.11-3.6h0.56
			c0.61,0,1.11,1.61,1.11,3.6V128.9z"/>
	</g>
	<g>
		<path class="st1" d="M111.71,120.78c0,1.75-1.66,3.16-3.7,3.16h-17.9c-2.05,0-3.7-1.42-3.7-3.16V13.25c0-1.75,1.66-3.16,3.7-3.16
			h17.9c2.04,0,3.7,1.42,3.7,3.16V120.78z"/>
		<path class="st2" d="M108.04,10.09h-2.07c0.14,0.33,0.22,0.68,0.22,1.05v107.53c0,1.75-1.66,3.16-3.7,3.16H86.65
			c0.51,1.23,1.88,2.11,3.49,2.11h17.9c2.05,0,3.7-1.42,3.7-3.16V13.25C111.74,11.5,110.08,10.09,108.04,10.09z"/>
		<path class="st2" d="M93.2,117c0,1.79-0.5,3.25-1.11,3.25h-0.56c-0.61,0-1.11-1.46-1.11-3.25V14.92c0-1.79,0.5-3.25,1.11-3.25
			h0.56c0.61,0,1.11,1.45,1.11,3.25V117z"/>
	</g>
	<g>
		<path class="st1" d="M145.34,110.27c0,1.59-1.66,2.87-3.7,2.87h-17.9c-2.04,0-3.7-1.29-3.7-2.87V12.65c0-1.59,1.66-2.87,3.7-2.87
			h17.9c2.04,0,3.7,1.29,3.7,2.87V110.27z"/>
		<path class="st2" d="M141.67,9.78h-2.07c0.14,0.3,0.22,0.62,0.22,0.96v97.62c0,1.59-1.66,2.87-3.7,2.87h-15.83
			c0.51,1.11,1.88,1.91,3.49,1.91h17.9c2.04,0,3.7-1.29,3.7-2.87V12.65C145.37,11.07,143.71,9.78,141.67,9.78z"/>
		<path class="st2" d="M126.83,106.84c0,1.63-0.5,2.95-1.11,2.95h-0.56c-0.61,0-1.11-1.32-1.11-2.95V14.17
			c0-1.63,0.5-2.95,1.11-2.95h0.56c0.61,0,1.11,1.32,1.11,2.95V106.84z"/>
	</g>
	<g>
		<path class="st1" d="M179.59,102.17c0,1.46-1.66,2.65-3.7,2.65h-17.9c-2.04,0-3.7-1.19-3.7-2.65V12.12c0-1.46,1.66-2.65,3.7-2.65
			h17.9c2.04,0,3.7,1.19,3.7,2.65V102.17z"/>
		<path class="st2" d="M175.92,9.47h-2.07c0.14,0.28,0.22,0.57,0.22,0.88v90.05c0,1.46-1.66,2.65-3.7,2.65h-15.83
			c0.51,1.03,1.88,1.77,3.49,1.77h17.9c2.04,0,3.7-1.19,3.7-2.65V12.12C179.62,10.66,177.96,9.47,175.92,9.47z"/>
		<path class="st2" d="M161.08,99c0,1.5-0.5,2.72-1.11,2.72h-0.56c-0.61,0-1.11-1.22-1.11-2.72V13.52c0-1.5,0.5-2.72,1.11-2.72h0.56
			c0.61,0,1.11,1.22,1.11,2.72V99z"/>
	</g>
	<g>
		<path class="st1" d="M213.23,91.66c0,1.3-1.66,2.36-3.7,2.36h-17.9c-2.04,0-3.7-1.06-3.7-2.36V11.52c0-1.3,1.66-2.36,3.7-2.36
			h17.9c2.04,0,3.7,1.06,3.7,2.36V91.66z"/>
		<path class="st2" d="M209.55,9.16h-2.07c0.14,0.25,0.22,0.51,0.22,0.79v80.14c0,1.3-1.66,2.36-3.7,2.36h-15.83
			c0.51,0.91,1.88,1.57,3.49,1.57h17.9c2.04,0,3.7-1.06,3.7-2.36V11.52C213.25,10.22,211.59,9.16,209.55,9.16z"/>
		<path class="st2" d="M194.71,88.84c0,1.34-0.5,2.42-1.11,2.42h-0.56c-0.61,0-1.11-1.08-1.11-2.42V12.76c0-1.34,0.5-2.42,1.11-2.42
			h0.56c0.61,0,1.11,1.08,1.11,2.42V88.84z"/>
	</g>
	<g>
		<path class="st1" d="M246.24,82.66c0,1.16-1.66,2.1-3.7,2.1h-17.9c-2.04,0-3.7-0.94-3.7-2.1v-71.4c0-1.16,1.66-2.1,3.7-2.1h17.9
			c2.04,0,3.7,0.94,3.7,2.1V82.66z"/>
		<path class="st2" d="M242.56,9.16h-2.07c0.14,0.22,0.22,0.45,0.22,0.7v71.4c0,1.16-1.66,2.1-3.7,2.1h-15.83
			c0.51,0.82,1.88,1.4,3.49,1.4h17.9c2.04,0,3.7-0.94,3.7-2.1v-71.4C246.27,10.1,244.61,9.16,242.56,9.16z"/>
		<path class="st2" d="M227.73,80.15c0,1.19-0.5,2.16-1.11,2.16h-0.56c-0.61,0-1.11-0.97-1.11-2.16V12.37c0-1.19,0.5-2.16,1.11-2.16
			h0.56c0.61,0,1.11,0.97,1.11,2.16V80.15z"/>
	</g>
	<g>
		<path d="M32.88,111.99c0,1.62-1.31,2.93-2.93,2.93c-1.62,0-2.93-1.31-2.93-2.93c0-1.62,1.31-2.93,2.93-2.93
			C31.56,109.06,32.88,110.37,32.88,111.99z"/>
		<path d="M31.18,111.91c0,0.98-0.79,1.77-1.77,1.77c-0.98,0-1.77-0.79-1.77-1.77s0.79-1.77,1.77-1.77
			C30.38,110.14,31.18,110.93,31.18,111.91z"/>
	</g>
	<g>
		<path d="M66.12,104.97c0,1.62-1.31,2.93-2.93,2.93s-2.93-1.31-2.93-2.93c0-1.62,1.31-2.93,2.93-2.93S66.12,103.35,66.12,104.97z"
			/>
		<path d="M64.43,104.89c0,0.98-0.79,1.77-1.77,1.77c-0.98,0-1.77-0.79-1.77-1.77s0.79-1.77,1.77-1.77
			C63.63,103.12,64.43,103.91,64.43,104.89z"/>
	</g>
	<g>
		<path d="M101.61,97.79c0,1.62-1.31,2.93-2.93,2.93c-1.62,0-2.93-1.31-2.93-2.93s1.31-2.93,2.93-2.93
			C100.29,94.86,101.61,96.17,101.61,97.79z"/>
		<path d="M99.91,97.72c0,0.98-0.79,1.77-1.77,1.77c-0.98,0-1.77-0.79-1.77-1.77c0-0.98,0.79-1.77,1.77-1.77
			C99.11,95.94,99.91,96.74,99.91,97.72z"/>
	</g>
	<g>
		<path d="M135.86,90.08c0,1.62-1.31,2.93-2.93,2.93c-1.62,0-2.93-1.31-2.93-2.93c0-1.62,1.31-2.93,2.93-2.93
			C134.54,87.15,135.86,88.46,135.86,90.08z"/>
		<path d="M134.16,90c0,0.98-0.79,1.77-1.77,1.77c-0.98,0-1.77-0.79-1.77-1.77c0-0.98,0.79-1.77,1.77-1.77
			C133.36,88.23,134.16,89.02,134.16,90z"/>
	</g>
	<g>
		<path d="M169.49,82.37c0,1.62-1.31,2.93-2.93,2.93c-1.62,0-2.93-1.31-2.93-2.93c0-1.62,1.31-2.93,2.93-2.93
			C168.18,79.43,169.49,80.75,169.49,82.37z"/>
		<path d="M167.79,82.29c0,0.98-0.79,1.77-1.77,1.77c-0.98,0-1.77-0.79-1.77-1.77c0-0.98,0.79-1.77,1.77-1.77
			C167,80.51,167.79,81.31,167.79,82.29z"/>
	</g>
	<g>
		<path d="M203.74,74.34c0,1.62-1.31,2.93-2.93,2.93c-1.62,0-2.93-1.31-2.93-2.93c0-1.62,1.31-2.93,2.93-2.93
			C202.42,71.41,203.74,72.72,203.74,74.34z"/>
		<path d="M202.04,74.27c0,0.98-0.79,1.77-1.77,1.77c-0.98,0-1.77-0.79-1.77-1.77c0-0.98,0.79-1.77,1.77-1.77
			C201.25,72.49,202.04,73.29,202.04,74.27z"/>
	</g>
	<g>
		<path d="M236.75,66.63c0,1.62-1.31,2.93-2.93,2.93c-1.62,0-2.93-1.31-2.93-2.93c0-1.62,1.31-2.93,2.93-2.93
			C235.44,63.7,236.75,65.01,236.75,66.63z"/>
		<path d="M235.06,66.55c0,0.98-0.79,1.77-1.77,1.77c-0.98,0-1.77-0.79-1.77-1.77s0.79-1.77,1.77-1.77
			C234.26,64.78,235.06,65.57,235.06,66.55z"/>
	</g>
	<g>
		<path d="M32.57,28.37c0,1.62-1.31,2.93-2.93,2.93c-1.62,0-2.93-1.31-2.93-2.93c0-1.62,1.31-2.93,2.93-2.93
			C31.26,25.44,32.57,26.75,32.57,28.37z"/>
		<path d="M30.87,28.29c0,0.98-0.79,1.77-1.77,1.77c-0.98,0-1.77-0.79-1.77-1.77c0-0.98,0.79-1.77,1.77-1.77
			C30.08,26.52,30.87,27.31,30.87,28.29z"/>
	</g>
	<g>
		<path d="M65.81,30.22c0,1.62-1.31,2.93-2.93,2.93c-1.62,0-2.93-1.31-2.93-2.93c0-1.62,1.31-2.93,2.93-2.93
			C64.5,27.29,65.81,28.6,65.81,30.22z"/>
		<path class="st3" d="M64.12,30.14c0,0.98-0.79,1.77-1.77,1.77c-0.98,0-1.77-0.79-1.77-1.77c0-0.98,0.79-1.77,1.77-1.77
			C63.32,28.37,64.12,29.16,64.12,30.14z"/>
	</g>
	<g>
		<path d="M102.84,30.53c0,1.62-1.31,2.93-2.93,2.93c-1.62,0-2.93-1.31-2.93-2.93c0-1.62,1.31-2.93,2.93-2.93
			C101.53,27.6,102.84,28.91,102.84,30.53z"/>
		<path d="M101.14,30.45c0,0.98-0.79,1.77-1.77,1.77c-0.98,0-1.77-0.79-1.77-1.77c0-0.98,0.79-1.77,1.77-1.77
			C100.35,28.68,101.14,29.47,101.14,30.45z"/>
	</g>
	<g>
		<path d="M135.51,30.77c0,1.62-1.31,2.93-2.93,2.93c-1.62,0-2.93-1.31-2.93-2.93c0-1.62,1.31-2.93,2.93-2.93
			C134.2,27.84,135.51,29.15,135.51,30.77z"/>
		<path d="M133.81,30.69c0,0.98-0.79,1.77-1.77,1.77c-0.98,0-1.77-0.79-1.77-1.77s0.79-1.77,1.77-1.77
			C133.02,28.92,133.81,29.71,133.81,30.69z"/>
	</g>
	<g>
		<path d="M170.41,30.53c0,1.62-1.31,2.93-2.93,2.93c-1.62,0-2.93-1.31-2.93-2.93c0-1.62,1.31-2.93,2.93-2.93
			C169.1,27.6,170.41,28.91,170.41,30.53z"/>
		<path d="M168.72,30.45c0,0.98-0.79,1.77-1.77,1.77c-0.98,0-1.77-0.79-1.77-1.77c0-0.98,0.79-1.77,1.77-1.77
			C167.92,28.68,168.72,29.47,168.72,30.45z"/>
	</g>
	<g>
		<path d="M203.12,30.22c0,1.62-1.31,2.93-2.93,2.93c-1.62,0-2.93-1.31-2.93-2.93c0-1.62,1.31-2.93,2.93-2.93
			C201.81,27.29,203.12,28.6,203.12,30.22z"/>
		<circle cx="199.65" cy="30.14" r="1.77"/>
	</g>
	<g>
		<path d="M236.44,30.22c0,1.62-1.31,2.93-2.93,2.93c-1.62,0-2.93-1.31-2.93-2.93c0-1.62,1.31-2.93,2.93-2.93
			C235.13,27.29,236.44,28.6,236.44,30.22z"/>
		<path d="M234.75,30.14c0,0.98-0.79,1.77-1.77,1.77c-0.98,0-1.77-0.79-1.77-1.77c0-0.98,0.79-1.77,1.77-1.77
			C233.95,28.37,234.75,29.16,234.75,30.14z"/>
	</g>
</g>
</svg>
